<svg xmlns="http://www.w3.org/2000/svg" viewBox="0 0 512 512">
  <rect width="512" height="512" rx="128" fill="#1f3a2a"/>
  <path d="M118 336c44-90 108-152 192-186 26-10 59-18 84-18-25 16-43 33-58 56 34 5 59 24 78 61-23-11-48-14-76-9 11 18 18 39 20 67-29-27-60-40-96-40-32 0-65 12-104 39 7-48 28-92 64-132-42 18-77 53-104 104z" fill="#c96f3e"/>
  <circle cx="361" cy="184" r="20" fill="#fffdf8"/>
  <path d="M150 372c37-24 73-36 111-36 43 0 77 14 107 43" fill="none" stroke="#fffdf8" stroke-linecap="round" stroke-width="18"/>
</svg>
